Coordinates
version=1
nRows=9
nColumns=24
inDegrees=yes

Units are S.I. units (second, meters, Newtons, ...)
Angles are in degrees.

endheader
time	pelvis_tilt	pelvis_list	pelvis_rotation	pelvis_tx	pelvis_ty	pelvis_tz	hip_flexion_r	hip_adduction_r	hip_rotation_r	knee_angle_r	ankle_angle_r	subtalar_angle_r	mtp_angle_r	hip_flexion_l	hip_adduction_l	hip_rotation_l	knee_angle_l	ankle_angle_l	subtalar_angle_l	mtp_angle_l	lumbar_extension	lumbar_bending	lumbar_rotation
      1.16216667	     -2.74286689	     -3.97455264	     -2.54054460	     -0.17519579	      1.00209453	      0.33443266	    -11.80600557	      8.24198421	      3.09905729	     -9.18531530	     15.84804088	     -2.89173203	      3.46850176	     23.70686244	     -4.82470534	     -3.13592606	      7.62187982	      3.53105137	     -5.30254618	     -3.63314210	     -0.54265969	      2.21266742	      7.84445329
      1.16633333	     -2.75301443	     -3.82987435	     -2.64390192	     -0.16944341	      1.00122652	      0.33409548	    -11.98558080	      8.01783194	      3.06666562	     -9.51062259	     16.05386386	     -2.69323138	      3.47451066	     23.82508513	     -4.65646235	     -3.07970266	      7.14112389	      3.68264356	     -5.29429089	     -3.57564506	     -0.48900448	      2.03618955	      7.95325609
      1.17050000	     -2.74454896	     -3.67693570	     -2.74040649	     -0.16367693	      1.00040966	      0.33376495	    -12.18114320	      7.79472631	      3.09420089	     -9.83722446	     16.14224531	     -2.70016648	      3.47883594	     23.93099812	     -4.47851438	     -2.99526058	      6.58849676	      3.78302277	     -5.38532881	     -3.55139549	     -0.47450212	      1.85183255	      7.98483189
      1.17466667	     -2.75662941	     -3.49114872	     -2.82346141	     -0.15782674	      0.99957821	      0.33338981	    -12.32702338	      7.52975804	      3.01150850	    -10.23246617	     16.41154684	     -2.39259160	      3.50242059	     24.08207992	     -4.26156813	     -3.00123249	      5.93269562	      3.88122984	     -5.31284070	     -3.43655280	     -0.37186427	      1.60870069	      8.14231672
      1.17883333	     -2.75089534	     -3.30543894	     -2.90865145	     -0.15200177	      0.99880558	      0.33299938	    -12.46407854	      7.26591913	      2.93167638	    -10.67436045	     16.57404893	     -2.20435795	      3.53512784	     24.23025684	     -4.04456385	     -3.02527379	      5.20314242	      3.92887583	     -5.28148503	     -3.23482691	     -0.34873539	      1.39726747	      8.22835266
      1.18300000	     -2.72066109	     -3.11011673	     -2.96820611	     -0.14610814	      0.99808515	      0.33261099	    -12.65709497	      7.01127354	      2.96723934	    -11.05307940	     16.61615811	     -2.27807925	      3.54267419	     24.34160295	     -3.81015291	     -2.95556381	      4.45760808	      3.90619473	     -5.39843797	     -3.19333000	     -0.34223856	      1.16217245	      8.25123278
      1.18716667	     -2.69140775	     -2.89734137	     -3.02325004	     -0.14017009	      0.99738795	      0.33220894	    -12.83064711	      6.73975684	      2.98318106	    -11.47239756	     16.66868345	     -2.32465092	      3.55498554	     24.46219411	     -3.55660210	     -2.92182148	      3.66223521	      3.82873687	     -5.49968739	     -3.13874119	     -0.31368254	      0.89494552	      8.29202359
      1.19133333	     -2.70064702	     -2.67650964	     -3.08556693	     -0.13420910	      0.99666269	      0.33177231	    -12.90809626	      6.44680638	      2.87656316	    -12.00977825	     16.85192308	     -2.06292058	      3.64523257	     24.64617418	     -3.29847238	     -2.99112321	      2.79503660	      3.70919767	     -5.47719795	     -2.76511458	     -0.20408161	      0.62185470	      8.45895579
      1.19550000	     -2.64862968	     -2.44218423	     -3.11438500	     -0.12819542	      0.99604980	      0.33132951	    -13.08666372	      6.16399999	      2.90109547	    -12.46482703	     16.83016236	     -2.19426513	      3.65959902	     24.74960866	     -3.01333994	     -2.95244951	      1.93825861	      3.54578454	     -5.60885523	     -2.70322899	     -0.20650019	      0.33347672	      8.46255469
